<?xml version="1.0" encoding="UTF-8"?>
<svg width="100" height="100" viewBox="0 0 100 100" xmlns="http://www.w3.org/2000/svg">
  <!-- Base/body -->
  <rect x="20" y="55" width="50" height="35" fill="#d42" rx="3" ry="3"/>
  
  <!-- Wheels -->
  <circle cx="30" cy="90" r="8" fill="#333"/>
  <circle cx="60" cy="90" r="8" fill="#333"/>
  
  <!-- Motor housing -->
  <rect x="25" y="50" width="40" height="15" fill="#333" rx="2" ry="2"/>
  
  <!-- Hose -->
  <path d="M70 65 Q 85 60, 85 40 Q 85 30, 75 25" stroke="#333" stroke-width="4" fill="none"/>
  
  <!-- Spray gun -->
  <rect x="65" y="20" width="15" height="6" fill="#222" rx="1" ry="1"/>
  <rect x="80" y="22" width="10" height="2" fill="#222"/>
  
  <!-- Handle -->
  <rect x="25" y="30" width="40" height="5" fill="#444" rx="2" ry="2"/>
  <rect x="25" y="30" width="5" height="25" fill="#444" rx="1" ry="1"/>
  <rect x="60" y="30" width="5" height="25" fill="#444" rx="1" ry="1"/>
  
  <!-- Control panel -->
  <rect x="30" y="60" width="30" height="8" fill="#222" rx="1" ry="1"/>
  <circle cx="40" cy="64" r="2" fill="#0a0"/>
  <circle cx="50" cy="64" r="2" fill="#d00"/>
</svg> 